<?xml version="1.0" standalone="no"?>
<!DOCTYPE svg PUBLIC "-//W3C//DTD SVG 20010904//EN"
 "http://www.w3.org/TR/2001/REC-SVG-20010904/DTD/svg10.dtd">
<svg version="1.0" xmlns="http://www.w3.org/2000/svg"
 width="543.000000pt" height="543.000000pt" viewBox="0 0 543.000000 543.000000"
 preserveAspectRatio="xMidYMid meet">
<metadata>
Created by potrace 1.11, written by Peter Selinger 2001-2013
</metadata>
<g transform="translate(0.000000,543.000000) scale(0.100000,-0.100000)"
fill="#000000" stroke="none">
<path d="M2580 5361 c-25 -5 -58 -11 -75 -14 -251 -41 -519 -194 -700 -400
-261 -295 -363 -673 -291 -1072 47 -256 213 -538 420 -710 l58 -48 -6 -134
c-4 -73 -8 -138 -11 -145 -2 -7 -6 -41 -10 -75 -3 -35 -7 -68 -10 -75 -2 -7
-6 -31 -9 -53 -8 -68 -64 -270 -102 -372 -85 -228 -229 -467 -369 -610 l-31
-32 -120 -2 c-129 -1 -149 -7 -186 -54 -23 -29 -23 -32 -23 -297 0 -147 -2
-268 -5 -269 -3 -1 -96 -2 -207 -3 -305 -3 -288 22 -288 -436 0 -369 3 -385
60 -420 32 -20 47 -20 2060 -20 1855 0 2030 1 2061 16 66 32 68 40 69 419 0
370 0 377 -58 419 -25 19 -44 21 -230 22 -111 1 -204 2 -207 3 -3 0 -5 119 -6
264 0 224 -2 267 -17 293 -26 51 -68 64 -200 64 l-116 0 -71 82 c-157 181
-283 416 -364 675 -14 46 -28 93 -30 105 -3 13 -8 34 -11 48 -31 128 -53 292
-61 460 l-6 125 79 70 c223 197 358 447 411 760 14 85 7 336 -12 420 -56 250
-159 446 -330 624 -184 190 -411 311 -691 366 -53 10 -318 14 -365 6z m335
-256 c313 -68 537 -227 695 -495 134 -227 165 -540 79 -800 -135 -410 -521
-690 -947 -687 -84 0 -211 15 -257 31 -5 1 -23 6 -40 11 -53 14 -148 56 -215
96 -224 132 -385 346 -456 604 -23 83 -29 143 -28 280 1 107 6 147 27 228 47
173 132 322 257 448 131 133 332 246 491 274 19 4 52 10 74 15 44 9 273 6 320
-5z m-518 -2184 c117 -34 174 -42 304 -47 180 -6 343 20 489 79 l60 25 1 -47
c2 -85 17 -227 34 -321 21 -117 52 -238 91 -353 41 -118 58 -161 112 -277 28
-60 116 -212 165 -285 l47 -70 -480 -3 c-264 -1 -696 -1 -960 0 l-479 3 70
105 c66 100 157 271 208 390 61 144 139 425 156 565 3 28 8 64 11 80 4 27 12
136 13 192 l1 22 44 -19 c25 -10 76 -28 113 -39z m1717 -1733 c-1 -101 -2
-185 -3 -188 -2 -8 -2741 -6 -2742 2 -4 21 -5 354 -2 361 2 4 622 7 1376 7
l1372 0 -1 -182z m496 -449 c3 -4 5 -88 5 -186 l0 -178 -1875 0 -1875 0 0 175
c-1 96 0 180 2 185 4 12 3735 15 3743 4z"/>
</g>
</svg>
